# xmcd
#
# Track frame offsets:
#	150
#	16370
#	35554
#	50763
#	66207
#	81177
#	96511
#	112043
#	126396
#	141009
#
# Disc length: 2111 seconds
#
# Revision: 0
# Processed by: cddbd v1.5PL3 Copyright (c) Steve Scherf et al.
# Submitted via: dBpowerAMP V4.0
#
DISCID=93083d0a
DTITLE=Joe Nichols - Six Of One, Half Dozen Of The Other
DYEAR=1900
DGENRE=
TTITLE0=Joe Nichols - -Six of One, Half Dozen of the Other - -01 - -Leave the Past Behind
TTITLE1=Joe Nichols - -Six of One, Half Dozen of the Other - -02 - -She Could Care Less
TTITLE2=Joe Nichols - -Six of One, Half Dozen of the Other - -03 - -In Spite of Myself
TTITLE3=Joe Nichols - -Six of One, Half Dozen of the Other - -04 - -Six of One, Half a Dozen (Of the Other)
TTITLE4=Joe Nichols - -Six of One, Half Dozen of the Other - -05 - -To Tell You the Truth, I Lied
TTITLE5=Joe Nichols - -Six of One, Half Dozen of the Other - -06 - -Independent Girl
TTITLE6=Joe Nichols - -Six of One, Half Dozen of the Other - -07 - -I Hate the Way I Love You
TTITLE7=Joe Nichols - -Six of One, Half Dozen of the Other - -08 - -Wal-Mart Parking Lot
TTITLE8=Joe Nichols - -Six of One, Half Dozen of the Other - -09 - -Old Cheyenne
TTITLE9=Joe Nichols - -Six of One, Half Dozen of the Other - -10 - -I'm Not That Kind of Guy
EXTD=
EXTT0=
EXTT1=
EXTT2=
EXTT3=
EXTT4=
EXTT5=
EXTT6=
EXTT7=
EXTT8=
EXTT9=
PLAYORDER=
